<?xml version="1.0" encoding="UTF-8"?>
<!-- Лист раскраски «Липа» — сгенерирован tools/make-sheets.js, не редактировать вручную.
     Печатать в масштабе 100% (без «по размеру страницы»): метки должны остаться 18 мм. -->
<svg xmlns="http://www.w3.org/2000/svg" viewBox="0 0 297 210" width="297mm" height="210mm">
  <rect width="297" height="210" fill="#fff"/>
  <rect x="8" y="8" width="18" height="18" fill="#000"/><rect x="11" y="11" width="3" height="3" fill="#fff"/><rect x="17" y="11" width="3" height="3" fill="#fff"/><rect x="20" y="11" width="3" height="3" fill="#fff"/><rect x="11" y="14" width="3" height="3" fill="#fff"/><rect x="17" y="14" width="3" height="3" fill="#fff"/><rect x="20" y="14" width="3" height="3" fill="#fff"/><rect x="17" y="17" width="3" height="3" fill="#fff"/><rect x="20" y="17" width="3" height="3" fill="#fff"/><rect x="14" y="20" width="3" height="3" fill="#fff"/>
  <rect x="271" y="8" width="18" height="18" fill="#000"/><rect x="280" y="11" width="3" height="3" fill="#fff"/><rect x="274" y="14" width="3" height="3" fill="#fff"/><rect x="277" y="14" width="3" height="3" fill="#fff"/><rect x="283" y="14" width="3" height="3" fill="#fff"/><rect x="280" y="20" width="3" height="3" fill="#fff"/><rect x="283" y="20" width="3" height="3" fill="#fff"/>
  <rect x="8" y="184" width="18" height="18" fill="#000"/><rect x="11" y="187" width="3" height="3" fill="#fff"/><rect x="14" y="187" width="3" height="3" fill="#fff"/><rect x="11" y="190" width="3" height="3" fill="#fff"/><rect x="14" y="190" width="3" height="3" fill="#fff"/><rect x="20" y="190" width="3" height="3" fill="#fff"/><rect x="11" y="193" width="3" height="3" fill="#fff"/><rect x="14" y="193" width="3" height="3" fill="#fff"/><rect x="17" y="193" width="3" height="3" fill="#fff"/><rect x="20" y="193" width="3" height="3" fill="#fff"/><rect x="17" y="196" width="3" height="3" fill="#fff"/>
  <rect x="271" y="184" width="18" height="18" fill="#000"/><rect x="274" y="187" width="3" height="3" fill="#fff"/><rect x="277" y="187" width="3" height="3" fill="#fff"/><rect x="283" y="187" width="3" height="3" fill="#fff"/><rect x="280" y="190" width="3" height="3" fill="#fff"/><rect x="274" y="193" width="3" height="3" fill="#fff"/><rect x="277" y="193" width="3" height="3" fill="#fff"/><rect x="280" y="193" width="3" height="3" fill="#fff"/><rect x="283" y="193" width="3" height="3" fill="#fff"/><rect x="274" y="196" width="3" height="3" fill="#fff"/><rect x="280" y="196" width="3" height="3" fill="#fff"/><rect x="283" y="196" width="3" height="3" fill="#fff"/>
  <path id="contour" d="M 148.5 39.9 L 153.74 43.96 L 158.25 47.59 L 161.94 50.73 L 167.82 55.59 L 169.86 57.37 L 171.9 59.27 L 174.4 61.85 L 176.8 64.69 L 180.26 69.21 L 183.28 73.49 L 186.17 78 L 187.51 80.29 L 188.75 82.58 L 189.87 84.85 L 190.54 86.34 L 191.43 88.57 L 192.24 90.84 L 192.98 93.14 L 193.63 95.46 L 194.37 98.57 L 194.83 100.89 L 195.19 103.2 L 195.46 105.47 L 195.63 107.7 L 195.7 109.87 L 195.66 111.98 L 195.57 113.38 L 195.41 114.78 L 195.09 116.87 L 194.31 120.3 L 193.73 122.32 L 193.07 124.27 L 192.34 126.17 L 191.57 127.98 L 190.76 129.71 L 189.64 131.85 L 189.05 132.86 L 188.08 134.31 L 187.04 135.7 L 185.93 137.01 L 183.97 139.03 L 181.53 141.17 L 179.1 142.96 L 176.77 144.39 L 175.59 144.99 L 174.39 145.52 L 172.37 146.22 L 171.17 146.52 L 169.99 146.73 L 168.11 146.84 L 166.71 146.71 L 165.74 146.48 L 165.14 146.23 L 164.27 145.61 L 163.45 144.7 L 162.41 143.19 L 159.94 138.69 L 159.18 137.48 L 158.83 137.06 L 158.49 136.79 L 158.18 136.69 L 157.75 136.84 L 157.51 137.09 L 157.18 137.67 L 156.9 138.45 L 156.67 139.4 L 156.31 141.63 L 155.72 146.74 L 155.63 149.24 L 155.75 154.42 L 155.73 156.21 L 155.62 157.81 L 155.36 159.14 L 155.04 159.91 L 154.61 160.53 L 154.1 161.02 L 153.53 161.39 L 152.89 161.67 L 151.98 161.91 L 151.03 162.04 L 149.61 162.1 L 146.21 162.06 L 145.02 161.91 L 144.11 161.67 L 143.27 161.28 L 142.72 160.87 L 142.1 160.13 L 141.74 159.42 L 141.43 158.17 L 141.27 156.21 L 141.25 154.42 L 141.37 149.24 L 141.28 146.74 L 140.69 141.63 L 140.33 139.4 L 140.1 138.45 L 139.82 137.67 L 139.49 137.09 L 139.25 136.84 L 138.82 136.69 L 138.51 136.79 L 138.17 137.06 L 137.82 137.48 L 137.06 138.69 L 134.59 143.19 L 133.55 144.7 L 132.73 145.61 L 131.86 146.23 L 131.26 146.48 L 130.29 146.71 L 128.89 146.84 L 127.01 146.73 L 125.03 146.33 L 123.02 145.68 L 121.81 145.17 L 120.62 144.6 L 118.3 143.22 L 115.88 141.49 L 113.84 139.78 L 111.84 137.85 L 110.69 136.58 L 109.6 135.24 L 107.95 132.86 L 107.08 131.33 L 105.97 129.14 L 104.41 125.54 L 103.71 123.63 L 103.07 121.65 L 102.51 119.62 L 102.04 117.56 L 101.68 115.48 L 101.5 114.08 L 101.34 111.98 L 101.3 110.58 L 101.34 108.43 L 101.48 106.22 L 101.71 103.96 L 102.04 101.66 L 102.46 99.34 L 103.17 96.24 L 103.79 93.91 L 104.5 91.6 L 105.29 89.32 L 106.15 87.09 L 106.79 85.6 L 107.87 83.34 L 109.07 81.05 L 110.38 78.76 L 113.22 74.23 L 116.74 69.21 L 120.2 64.69 L 122.6 61.85 L 125.1 59.27 L 127.14 57.37 L 129.18 55.59 L 135.06 50.73 L 138.75 47.59 L 143.26 43.96 Z" fill="#fff" stroke="#8a8a8a" stroke-width="1.6" stroke-linejoin="round"/>
  <path id="vein" d="M 148.5 151.26 L 148.5 48.32" fill="none" stroke="#b8b8b8" stroke-width="0.5" stroke-dasharray="3 2" stroke-linecap="round"/>
  <text x="36" y="181" font-family="Arial, Helvetica, sans-serif" font-size="8" fill="#555">Липа</text>
  <text x="261" y="181" font-family="Arial, Helvetica, sans-serif" font-size="6" fill="#555" text-anchor="end">Имя: ________________</text>
  <text x="148.5" y="199" font-family="Arial, Helvetica, sans-serif" font-size="3.6" fill="#999" text-anchor="middle">Живой листопад · раскрась лист, сфотографируй по QR с экрана — и он полетит</text>
</svg>
